<svg width="54" height="12" viewBox="0 0 54 12" fill="none" xmlns="http://www.w3.org/2000/svg">
<path d="M0.243164 11V1.04688H3.72949C4.93717 1.04688 5.85319 1.2793 6.47754 1.74414C7.10189 2.20443 7.41406 2.88118 7.41406 3.77441C7.41406 4.26204 7.28874 4.69271 7.03809 5.06641C6.78743 5.43555 6.4388 5.70671 5.99219 5.87988C6.5026 6.00749 6.90365 6.26497 7.19531 6.65234C7.49154 7.03971 7.63965 7.51367 7.63965 8.07422C7.63965 9.03125 7.33431 9.75586 6.72363 10.248C6.11296 10.7402 5.24251 10.9909 4.1123 11H0.243164ZM2.29395 6.66602V9.35254H4.05078C4.53385 9.35254 4.90983 9.23861 5.17871 9.01074C5.45215 8.77832 5.58887 8.45931 5.58887 8.05371C5.58887 7.14225 5.11719 6.67969 4.17383 6.66602H2.29395ZM2.29395 5.2168H3.81152C4.84603 5.19857 5.36328 4.78613 5.36328 3.97949C5.36328 3.52832 5.23112 3.20475 4.9668 3.00879C4.70703 2.80827 4.2946 2.70801 3.72949 2.70801H2.29395V5.2168ZM16.7178 1.04688V7.60254C16.7178 8.69173 16.376 9.55306 15.6924 10.1865C15.0133 10.82 14.0837 11.1367 12.9033 11.1367C11.7412 11.1367 10.8184 10.8291 10.1348 10.2139C9.45117 9.59863 9.10254 8.75326 9.08887 7.67773V1.04688H11.1396V7.61621C11.1396 8.2679 11.2946 8.74414 11.6045 9.04492C11.9189 9.34115 12.3519 9.48926 12.9033 9.48926C14.0563 9.48926 14.6419 8.88314 14.6602 7.6709V1.04688H16.7178ZM23.5605 8.38867C23.5605 8.0013 23.4238 7.70508 23.1504 7.5C22.877 7.29036 22.3848 7.07161 21.6738 6.84375C20.9629 6.61133 20.4001 6.38346 19.9854 6.16016C18.8551 5.54948 18.29 4.72689 18.29 3.69238C18.29 3.15462 18.4404 2.67611 18.7412 2.25684C19.0465 1.83301 19.4818 1.5026 20.0469 1.26562C20.6165 1.02865 21.2546 0.910156 21.9609 0.910156C22.6719 0.910156 23.3053 1.04004 23.8613 1.2998C24.4173 1.55501 24.848 1.91732 25.1533 2.38672C25.4632 2.85612 25.6182 3.38932 25.6182 3.98633H23.5674C23.5674 3.5306 23.4238 3.17741 23.1367 2.92676C22.8496 2.67155 22.4463 2.54395 21.9268 2.54395C21.4255 2.54395 21.0358 2.65104 20.7578 2.86523C20.4798 3.07487 20.3408 3.35286 20.3408 3.69922C20.3408 4.02279 20.5026 4.29395 20.8262 4.5127C21.1543 4.73145 21.6351 4.93652 22.2686 5.12793C23.4352 5.47884 24.2852 5.91406 24.8184 6.43359C25.3516 6.95312 25.6182 7.60026 25.6182 8.375C25.6182 9.23633 25.2923 9.91309 24.6406 10.4053C23.9889 10.8929 23.1117 11.1367 22.0088 11.1367C21.2432 11.1367 20.5459 10.9977 19.917 10.7197C19.2881 10.4372 18.8073 10.0521 18.4746 9.56445C18.1465 9.07682 17.9824 8.51172 17.9824 7.86914H20.04C20.04 8.96745 20.6963 9.5166 22.0088 9.5166C22.4964 9.5166 22.877 9.41862 23.1504 9.22266C23.4238 9.02214 23.5605 8.74414 23.5605 8.38867ZM34.8262 7.68457C34.7487 8.75553 34.3522 9.59863 33.6367 10.2139C32.9258 10.8291 31.987 11.1367 30.8203 11.1367C29.5443 11.1367 28.5394 10.7083 27.8057 9.85156C27.0765 8.99023 26.7119 7.8099 26.7119 6.31055V5.70215C26.7119 4.74512 26.8805 3.90202 27.2178 3.17285C27.555 2.44368 28.0358 1.88542 28.6602 1.49805C29.2891 1.10612 30.0182 0.910156 30.8477 0.910156C31.9961 0.910156 32.9212 1.21777 33.623 1.83301C34.3249 2.44824 34.7305 3.31185 34.8398 4.42383H32.7891C32.7389 3.78125 32.5589 3.31641 32.249 3.0293C31.9437 2.73763 31.4766 2.5918 30.8477 2.5918C30.1641 2.5918 29.6514 2.83789 29.3096 3.33008C28.9723 3.81771 28.7992 4.5765 28.79 5.60645V6.3584C28.79 7.43392 28.9518 8.22005 29.2754 8.7168C29.6035 9.21354 30.1185 9.46191 30.8203 9.46191C31.4538 9.46191 31.9255 9.31836 32.2354 9.03125C32.5498 8.73958 32.7298 8.29069 32.7754 7.68457H34.8262ZM41.792 8.94922H38.1963L37.5127 11H35.332L39.0371 1.04688H40.9375L44.6631 11H42.4824L41.792 8.94922ZM38.75 7.28809H41.2383L39.9873 3.5625L38.75 7.28809ZM49.2773 7.35645H47.6436V11H45.5928V1.04688H49.291C50.4668 1.04688 51.3737 1.30892 52.0117 1.83301C52.6497 2.3571 52.9688 3.09766 52.9688 4.05469C52.9688 4.73372 52.8206 5.30111 52.5244 5.75684C52.2327 6.20801 51.7884 6.56803 51.1914 6.83691L53.3447 10.9043V11H51.1436L49.2773 7.35645ZM47.6436 5.69531H49.2979C49.8128 5.69531 50.2116 5.56543 50.4941 5.30566C50.7767 5.04134 50.918 4.67904 50.918 4.21875C50.918 3.74935 50.7835 3.38021 50.5146 3.11133C50.2503 2.84245 49.8424 2.70801 49.291 2.70801H47.6436V5.69531Z" fill="white"/>
</svg>
